<?xml version="1.0" encoding="UTF-8" standalone="no"?>
<!DOCTYPE svg PUBLIC "-//W3C//DTD SVG 1.1//EN"
 "http://www.w3.org/Graphics/SVG/1.1/DTD/svg11.dtd">
<!-- Generated by graphviz version 2.42.4 (0)
 -->
<!-- Title: Topology Pages: 1 -->
<svg width="534pt" height="152pt"
 viewBox="0.00 0.00 534.00 152.00" xmlns="http://www.w3.org/2000/svg" xmlns:xlink="http://www.w3.org/1999/xlink">
<g id="graph0" class="graph" transform="scale(1 1) rotate(0) translate(4 148)">
<title>Topology</title>
<polygon fill="white" stroke="transparent" points="-4,4 -4,-148 530,-148 530,4 -4,4"/>
<!-- h1 -->
<g id="node1" class="node">
<title>h1</title>
<polygon fill="none" stroke="black" points="54,-90 0,-90 0,-54 54,-54 54,-90"/>
<text text-anchor="middle" x="27" y="-69.2" font-family="Times,serif" font-size="11.00">h1</text>
</g>
<!-- h2 -->
<g id="node2" class="node">
<title>h2</title>
<polygon fill="none" stroke="black" points="300,-144 226,-144 226,-108 300,-108 300,-144"/>
<text text-anchor="middle" x="263" y="-129.2" font-family="Times,serif" font-size="11.00">h2</text>
<text text-anchor="middle" x="263" y="-117.2" font-family="Times,serif" font-size="11.00">(Router 1)</text>
</g>
<!-- h1&#45;&gt;h2 -->
<g id="edge1" class="edge">
<title>h1&#45;&gt;h2</title>
<path fill="none" stroke="black" d="M54.39,-78.09C93.56,-87.13 167.63,-104.22 215.89,-115.36"/>
<polygon fill="black" stroke="black" points="215.24,-118.8 225.77,-117.64 216.81,-111.98 215.24,-118.8"/>
<text text-anchor="middle" x="140" y="-103" font-family="Times,serif" font-size="10.00">10ms</text>
<text text-anchor="middle" x="206.21" y="-124.8" font-family="Times,serif" font-size="10.00">h2&#45;eth0</text>
<text text-anchor="middle" x="206.21" y="-113.8" font-family="Times,serif" font-size="10.00">10.0.1.2</text>
<text text-anchor="middle" x="73.95" y="-76.93" font-family="Times,serif" font-size="10.00">h1&#45;eth0</text>
<text text-anchor="middle" x="73.95" y="-65.93" font-family="Times,serif" font-size="10.00">10.0.1.1</text>
</g>
<!-- h4 -->
<g id="node3" class="node">
<title>h4</title>
<polygon fill="none" stroke="black" points="300,-36 226,-36 226,0 300,0 300,-36"/>
<text text-anchor="middle" x="263" y="-21.2" font-family="Times,serif" font-size="11.00">h4</text>
<text text-anchor="middle" x="263" y="-9.2" font-family="Times,serif" font-size="11.00">(Router 2)</text>
</g>
<!-- h1&#45;&gt;h4 -->
<g id="edge3" class="edge">
<title>h1&#45;&gt;h4</title>
<path fill="none" stroke="black" d="M54.39,-65.91C93.56,-56.87 167.63,-39.78 215.89,-28.64"/>
<polygon fill="black" stroke="black" points="216.81,-32.02 225.77,-26.36 215.24,-25.2 216.81,-32.02"/>
<text text-anchor="middle" x="140" y="-51" font-family="Times,serif" font-size="10.00">10ms</text>
<text text-anchor="middle" x="210.01" y="-41.67" font-family="Times,serif" font-size="10.00">h4&#45;eth0</text>
<text text-anchor="middle" x="210.01" y="-30.67" font-family="Times,serif" font-size="10.00">10.0.3.2</text>
<text text-anchor="middle" x="70.15" y="-56.6" font-family="Times,serif" font-size="10.00">h1&#45;eth1</text>
<text text-anchor="middle" x="70.15" y="-45.6" font-family="Times,serif" font-size="10.00">10.0.3.1</text>
</g>
<!-- h3 -->
<g id="node4" class="node">
<title>h3</title>
<polygon fill="none" stroke="black" points="526,-90 472,-90 472,-54 526,-54 526,-90"/>
<text text-anchor="middle" x="499" y="-69.2" font-family="Times,serif" font-size="11.00">h3</text>
</g>
<!-- h2&#45;&gt;h3 -->
<g id="edge2" class="edge">
<title>h2&#45;&gt;h3</title>
<path fill="none" stroke="black" d="M300.05,-117.68C343.96,-107.55 417.72,-90.53 461.73,-80.37"/>
<polygon fill="black" stroke="black" points="462.76,-83.73 471.71,-78.07 461.18,-76.9 462.76,-83.73"/>
<text text-anchor="middle" x="386" y="-103" font-family="Times,serif" font-size="10.00">10ms</text>
<text text-anchor="middle" x="455.95" y="-93.38" font-family="Times,serif" font-size="10.00">h3&#45;eth0</text>
<text text-anchor="middle" x="455.95" y="-82.38" font-family="Times,serif" font-size="10.00">10.0.2.2</text>
<text text-anchor="middle" x="315.81" y="-108.37" font-family="Times,serif" font-size="10.00">h2&#45;eth1</text>
<text text-anchor="middle" x="315.81" y="-97.37" font-family="Times,serif" font-size="10.00">10.0.2.1</text>
</g>
<!-- h4&#45;&gt;h3 -->
<g id="edge4" class="edge">
<title>h4&#45;&gt;h3</title>
<path fill="none" stroke="black" d="M300.05,-26.32C343.96,-36.45 417.72,-53.47 461.73,-63.63"/>
<polygon fill="black" stroke="black" points="461.18,-67.1 471.71,-65.93 462.76,-60.27 461.18,-67.1"/>
<text text-anchor="middle" x="386" y="-51" font-family="Times,serif" font-size="10.00">10ms</text>
<text text-anchor="middle" x="452.15" y="-73.09" font-family="Times,serif" font-size="10.00">h3&#45;eth1</text>
<text text-anchor="middle" x="452.15" y="-62.09" font-family="Times,serif" font-size="10.00">10.0.4.2</text>
<text text-anchor="middle" x="319.61" y="-25.16" font-family="Times,serif" font-size="10.00">h4&#45;eth1</text>
<text text-anchor="middle" x="319.61" y="-14.16" font-family="Times,serif" font-size="10.00">10.0.4.1</text>
</g>
</g>
</svg>
